<svg xmlns="http://www.w3.org/2000/svg" enable-background="new 0 0 24 24" height="24" width="24"><rect id="backgroundrect" width="100%" height="100%" x="0" y="0" fill="none" stroke="none"/><g class="currentLayer" style=""><title>Layer 1</title><g fill="#5c6bc0" class="" id="svg_1"><path d="m3.58 21.196h14.259l-.681-2.205c.101.088 5.842 5.009 5.842 5.009v-21.525c-.068-1.338-1.22-2.475-2.648-2.475l-16.767.003c-1.427 0-2.585 1.139-2.585 2.477v16.24c0 1.411 1.156 2.476 2.58 2.476zm10.548-15.513-.033.012.012-.012zm-7.631 1.269c1.833-1.334 3.532-1.27 3.532-1.27l.137.135c-2.243.535-3.26 1.537-3.26 1.537.104-.022 4.633-2.635 10.121.066 0 0-1.019-.937-3.124-1.537l.186-.183c.291.001 1.831.055 3.479 1.26 0 0 1.844 3.15 1.844 7.02-.061-.074-1.144 1.666-3.931 1.726 0 0-.472-.534-.808-1 1.63-.468 2.24-1.404 2.24-1.404-3.173 1.998-5.954 1.686-9.281.336-.031 0-.045-.014-.061-.03v-.006c-.016-.015-.03-.03-.061-.03h-.06c-.204-.134-.34-.2-.34-.2s.609.936 2.174 1.404c-.411.469-.818 1.002-.818 1.002-2.786-.066-3.802-1.806-3.802-1.806 0-3.876 1.833-7.02 1.833-7.02z" id="svg_2"/><path d="m14.308 12.771c.711 0 1.29-.6 1.29-1.34 0-.735-.576-1.335-1.29-1.335v.003c-.708 0-1.288.598-1.29 1.338 0 .734.579 1.334 1.29 1.334z" id="svg_3"/><path d="m9.69 12.771c.711 0 1.29-.6 1.29-1.34 0-.735-.575-1.335-1.286-1.335l-.004.003c-.711 0-1.29.598-1.29 1.338 0 .734.579 1.334 1.29 1.334z" id="svg_4"/></g><rect fill="#ffffff" stroke-dashoffset="" fill-rule="nonzero" id="svg_5" x="4" y="5" width="16" height="11" style="color: rgb(0, 0, 0);" class=""/><g fill="#5c6bc0" class="selected" id="svg_7"><path d="m3.3299999999999983,21.070999999999998 h14.259 l-0.6810000000000004,-2.205 c0.101,0.08800000000000004 5.8420000000000005,5.009 5.8420000000000005,5.009 v-21.525 c-0.06800000000000003,-1.338 -1.22,-2.475 -2.648,-2.475 l-16.767,0.003000000000000002 c-1.427,0 -2.585,1.139 -2.585,2.477 v16.24 c0,1.411 1.1560000000000001,2.476 2.58,2.476 zm10.548,-15.513 l-0.033000000000000015,0.012000000000000004 l0.012000000000000004,-0.012000000000000004 zm-7.631,1.2690000000000001 c1.8330000000000002,-1.334 3.532,-1.27 3.532,-1.27 l0.137,0.135 c-2.243,0.535 -3.26,1.537 -3.26,1.537 c0.10400000000000002,-0.022000000000000013 4.633,-2.6350000000000002 10.121,0.06600000000000003 c0,0 -1.019,-0.937 -3.124,-1.537 l0.18600000000000005,-0.18300000000000005 c0.2910000000000001,0.0010000000000000005 1.831,0.055000000000000014 3.479,1.26 c0,0 1.844,3.15 1.844,7.02 c-0.06100000000000002,-0.07400000000000002 -1.1440000000000001,1.6660000000000004 -3.931,1.726 c0,0 -0.4720000000000001,-0.534 -0.808,-1 c1.6300000000000003,-0.468 2.24,-1.404 2.24,-1.404 c-3.173,1.998 -5.954,1.6860000000000004 -9.281,0.3360000000000002 c-0.031000000000000014,0 -0.04500000000000002,-0.014000000000000004 -0.06100000000000002,-0.030000000000000013 v-0.006000000000000004 c-0.016000000000000007,-0.015000000000000006 -0.030000000000000013,-0.030000000000000013 -0.06100000000000002,-0.030000000000000013 h-0.06000000000000002 c-0.20400000000000001,-0.134 -0.3400000000000002,-0.2 -0.3400000000000002,-0.2 s0.6090000000000002,0.936 2.174,1.404 c-0.4110000000000001,0.4690000000000001 -0.8180000000000002,1.002 -0.8180000000000002,1.002 c-2.786,-0.06600000000000003 -3.802,-1.806 -3.802,-1.806 c0,-3.8760000000000003 1.8330000000000002,-7.02 1.8330000000000002,-7.02 z" id="svg_8"/><path d="m14.058,12.646 c0.7110000000000002,0 1.29,-0.6000000000000002 1.29,-1.34 c0,-0.7350000000000002 -0.5760000000000002,-1.335 -1.29,-1.335 v0.003000000000000002 c-0.7080000000000002,0 -1.288,0.5980000000000002 -1.29,1.338 c0,0.7340000000000002 0.5790000000000002,1.334 1.29,1.334 z" id="svg_9"/><path d="m9.439999999999998,12.646 c0.7110000000000002,0 1.29,-0.6000000000000002 1.29,-1.34 c0,-0.7350000000000002 -0.5750000000000002,-1.335 -1.286,-1.335 l-0.004000000000000002,0.003000000000000002 c-0.7110000000000002,0 -1.29,0.5980000000000002 -1.29,1.338 c0,0.7340000000000002 0.5790000000000002,1.334 1.29,1.334 z" id="svg_10"/></g></g></svg>